    <svg
      xmlns="http://www.w3.org/2000/svg"
      version="1.1"
      xmlns:xlink="http://www.w3.org/1999/xlink"
      xmlns:svgjs="http://svgjs.dev/svgjs"
      viewBox="0 0 16.303528221177952 5.438590261524341"
    >
      <g transform="matrix(1,0,0,1,3.0123472054980476,0.8520388807621708)">
        <g>
          <path
            d=" M 0.0915 1.0739999999999998 L 0.0915 0.008999999999999897 L 0.384 0.008999999999999897 L 0.384 0.8189999999999998 L 0.867 0.8189999999999998 L 0.867 1.0739999999999998 L 0.0915 1.0739999999999998 Z M 1.22994140625 0.008999999999999897 L 1.55694140625 0.008999999999999897 L 1.89594140625 1.0739999999999998 L 1.59894140625 1.0739999999999998 L 1.53444140625 0.8654999999999998 L 1.25094140625 0.8654999999999998 L 1.18794140625 1.0739999999999998 L 0.88944140625 1.0739999999999998 L 1.22994140625 0.008999999999999897 Z M 1.48794140625 0.6704999999999999 L 1.39344140625 0.2954999999999999 L 1.29444140625 0.6704999999999999 L 1.48794140625 0.6704999999999999 Z M 2.423871826171875 1.0829999999999997 Q 2.296371826171875 1.0829999999999997 2.204871826171875 1.041 Q 2.113371826171875 0.9989999999999999 2.055621826171875 0.9254999999999999 Q 1.997871826171875 0.8519999999999999 1.970871826171875 0.7567499999999998 Q 1.943871826171875 0.6614999999999998 1.943871826171875 0.5564999999999999 L 1.943871826171875 0.008999999999999897 L 2.236371826171875 0.008999999999999897 L 2.236371826171875 0.5564999999999999 Q 2.236371826171875 0.6089999999999998 2.246871826171875 0.6569999999999998 Q 2.257371826171875 0.7049999999999998 2.279871826171875 0.7424999999999998 Q 2.302371826171875 0.7799999999999998 2.337621826171875 0.8017499999999999 Q 2.372871826171875 0.8234999999999999 2.423871826171875 0.8234999999999999 Q 2.4763718261718752 0.8234999999999999 2.512371826171875 0.8017499999999999 Q 2.5483718261718753 0.7799999999999998 2.5701218261718752 0.7417499999999999 Q 2.591871826171875 0.7034999999999998 2.602371826171875 0.6554999999999999 Q 2.612871826171875 0.6074999999999998 2.612871826171875 0.5564999999999999 L 2.612871826171875 0.008999999999999897 L 2.905371826171875 0.008999999999999897 L 2.905371826171875 0.5564999999999999 Q 2.905371826171875 0.6674999999999998 2.8761218261718753 0.7634999999999998 Q 2.846871826171875 0.8594999999999998 2.788371826171875 0.9314999999999998 Q 2.729871826171875 1.0034999999999998 2.639121826171875 1.0432499999999998 Q 2.5483718261718753 1.0829999999999997 2.423871826171875 1.0829999999999997 Z M 3.08834326171875 1.0739999999999998 L 3.08834326171875 0.008999999999999897 L 3.5773432617187497 0.008999999999999897 Q 3.65534326171875 0.008999999999999897 3.72134326171875 0.04049999999999976 Q 3.7873432617187497 0.07199999999999984 3.8353432617187497 0.12524999999999986 Q 3.8833432617187498 0.17849999999999977 3.90959326171875 0.24449999999999983 Q 3.93584326171875 0.3104999999999998 3.93584326171875 0.3779999999999998 Q 3.93584326171875 0.4394999999999998 3.91784326171875 0.49649999999999983 Q 3.89984326171875 0.5534999999999999 3.86534326171875 0.6007499999999999 Q 3.83084326171875 0.6479999999999999 3.78284326171875 0.6824999999999999 L 4.00784326171875 1.0739999999999998 L 3.68684326171875 1.0739999999999998 L 3.49934326171875 0.7469999999999999 L 3.38084326171875 0.7469999999999999 L 3.38084326171875 1.0739999999999998 L 3.08834326171875 1.0739999999999998 Z M 3.38084326171875 0.4919999999999999 L 3.56534326171875 0.4919999999999999 Q 3.58334326171875 0.4919999999999999 3.5998432617187497 0.4784999999999998 Q 3.61634326171875 0.46499999999999986 3.62759326171875 0.4394999999999998 Q 3.63884326171875 0.4139999999999998 3.63884326171875 0.3779999999999998 Q 3.63884326171875 0.3404999999999998 3.62609326171875 0.31574999999999986 Q 3.61334326171875 0.2909999999999998 3.59459326171875 0.27749999999999986 Q 3.5758432617187497 0.2639999999999998 3.55784326171875 0.2639999999999998 L 3.38084326171875 0.2639999999999998 L 3.38084326171875 0.4919999999999999 Z M 4.361824951171876 0.008999999999999897 L 4.688824951171876 0.008999999999999897 L 5.027824951171875 1.0739999999999998 L 4.730824951171876 1.0739999999999998 L 4.666324951171876 0.8654999999999998 L 4.382824951171876 0.8654999999999998 L 4.319824951171875 1.0739999999999998 L 4.021324951171875 1.0739999999999998 L 4.361824951171876 0.008999999999999897 Z M 4.619824951171876 0.6704999999999999 L 4.525324951171876 0.2954999999999999 L 4.426324951171876 0.6704999999999999 L 4.619824951171876 0.6704999999999999 Z M 6.083732666015625 0.3569999999999999 Q 6.083732666015625 0.3569999999999999 6.058232666015625 0.34199999999999986 Q 6.032732666015625 0.32699999999999985 5.990732666015624 0.3082499999999998 Q 5.948732666015625 0.28949999999999987 5.8992326660156245 0.27449999999999986 Q 5.849732666015625 0.25949999999999984 5.801732666015625 0.25949999999999984 Q 5.764232666015625 0.25949999999999984 5.740232666015625 0.27149999999999985 Q 5.716232666015625 0.28349999999999986 5.716232666015625 0.31199999999999983 Q 5.716232666015625 0.33899999999999986 5.740232666015625 0.3554999999999998 Q 5.764232666015625 0.3719999999999998 5.808482666015625 0.38549999999999984 Q 5.8527326660156245 0.3989999999999998 5.914232666015625 0.41849999999999987 Q 6.013232666015625 0.4484999999999998 6.085232666015624 0.4874999999999998 Q 6.157232666015625 0.5264999999999999 6.196232666015625 0.5872499999999998 Q 6.235232666015625 0.6479999999999999 6.235232666015625 0.7484999999999998 Q 6.235232666015625 0.8444999999999998 6.200732666015625 0.9097499999999998 Q 6.166232666015625 0.9749999999999999 6.107732666015625 1.0139999999999998 Q 6.049232666015625 1.053 5.977232666015625 1.07025 Q 5.905232666015625 1.0875 5.8302326660156245 1.0875 Q 5.753732666015625 1.0875 5.670482666015625 1.0717499999999998 Q 5.587232666015625 1.0559999999999998 5.509232666015625 1.0282499999999999 Q 5.4312326660156245 1.0005 5.366732666015625 0.9629999999999999 L 5.492732666015625 0.7064999999999999 Q 5.492732666015625 0.7064999999999999 5.522732666015625 0.7244999999999998 Q 5.552732666015625 0.7424999999999998 5.602232666015625 0.7649999999999999 Q 5.651732666015625 0.7874999999999999 5.7124826660156245 0.8054999999999999 Q 5.773232666015625 0.8234999999999999 5.834732666015625 0.8234999999999999 Q 5.882732666015625 0.8234999999999999 5.9014826660156245 0.8107499999999999 Q 5.920232666015625 0.7979999999999998 5.920232666015625 0.7769999999999999 Q 5.920232666015625 0.7454999999999998 5.887232666015625 0.7282499999999998 Q 5.8542326660156245 0.7109999999999999 5.800982666015625 0.6952499999999998 Q 5.747732666015625 0.6794999999999998 5.683232666015625 0.6584999999999999 Q 5.590232666015625 0.6269999999999998 5.530232666015625 0.5872499999999998 Q 5.470232666015625 0.5474999999999999 5.441732666015625 0.4927499999999998 Q 5.413232666015625 0.43799999999999983 5.413232666015625 0.3599999999999999 Q 5.413232666015625 0.24149999999999983 5.468732666015625 0.1619999999999998 Q 5.5242326660156245 0.0824999999999998 5.614982666015625 0.04124999999999979 Q 5.705732666015625 -2.220446049250313e-16 5.810732666015625 -2.220446049250313e-16 Q 5.888732666015625 -2.220446049250313e-16 5.961482666015625 0.018749999999999822 Q 6.034232666015625 0.03749999999999987 6.097982666015625 0.06449999999999978 Q 6.161732666015625 0.0914999999999998 6.209732666015625 0.11549999999999983 L 6.083732666015625 0.3569999999999999 Z M 6.5981396484375 0.008999999999999897 L 6.9251396484375 0.008999999999999897 L 7.264139648437499 1.0739999999999998 L 6.9671396484375 1.0739999999999998 L 6.9026396484375 0.8654999999999998 L 6.6191396484375 0.8654999999999998 L 6.556139648437499 1.0739999999999998 L 6.257639648437499 1.0739999999999998 L 6.5981396484375 0.008999999999999897 Z M 6.8561396484375 0.6704999999999999 L 6.7616396484375 0.2954999999999999 L 6.6626396484375 0.6704999999999999 L 6.8561396484375 0.6704999999999999 Z M 7.367627929687499 1.0739999999999998 L 7.367627929687499 0.008999999999999897 L 7.6601279296875 0.008999999999999897 L 7.6601279296875 0.8189999999999998 L 8.143127929687498 0.8189999999999998 L 8.143127929687498 1.0739999999999998 L 7.367627929687499 1.0739999999999998 Z M 8.70701953125 1.0815 Q 8.603519531249999 1.0815 8.509769531249999 1.0447499999999998 Q 8.416019531249999 1.0079999999999998 8.34401953125 0.9367499999999999 Q 8.27201953125 0.8654999999999998 8.230769531249999 0.7642499999999999 Q 8.18951953125 0.6629999999999998 8.18951953125 0.5324999999999999 Q 8.18951953125 0.4199999999999998 8.23151953125 0.32399999999999984 Q 8.273519531249999 0.22799999999999987 8.34776953125 0.15524999999999978 Q 8.42201953125 0.0824999999999998 8.52101953125 0.041999999999999815 Q 8.62001953125 0.0014999999999998348 8.73551953125 0.0014999999999998348 Q 8.87951953125 0.0014999999999998348 8.99651953125 0.06374999999999975 Q 9.11351953125 0.12599999999999978 9.17051953125 0.23399999999999987 L 8.95301953125 0.40049999999999986 Q 8.92151953125 0.3374999999999998 8.85851953125 0.2992499999999998 Q 8.79551953125 0.2609999999999998 8.72501953125 0.2609999999999998 Q 8.67251953125 0.2609999999999998 8.62901953125 0.2819999999999998 Q 8.58551953125 0.3029999999999998 8.553269531249999 0.3404999999999998 Q 8.52101953125 0.3779999999999998 8.50376953125 0.42974999999999985 Q 8.48651953125 0.4814999999999998 8.48651953125 0.5429999999999998 Q 8.48651953125 0.6059999999999999 8.50451953125 0.6569999999999998 Q 8.52251953125 0.7079999999999999 8.554769531249999 0.7447499999999998 Q 8.58701953125 0.7814999999999999 8.63201953125 0.8017499999999999 Q 8.67701953125 0.8219999999999998 8.73251953125 0.8219999999999998 Q 8.80301953125 0.8219999999999998 8.86751953125 0.7867499999999998 Q 8.932019531249999 0.7514999999999998 8.98451953125 0.6869999999999998 L 8.98451953125 0.9719999999999999 Q 8.86451953125 1.0815 8.70701953125 1.0815 Z M 8.96951953125 0.7169999999999999 L 8.77301953125 0.7169999999999999 L 8.77301953125 0.5069999999999998 L 9.211019531249999 0.5069999999999998 L 9.211019531249999 1.0739999999999998 L 8.96951953125 1.0739999999999998 L 8.96951953125 0.7169999999999999 Z M 9.615948486328126 0.008999999999999897 L 9.942948486328126 0.008999999999999897 L 10.281948486328126 1.0739999999999998 L 9.984948486328125 1.0739999999999998 L 9.920448486328125 0.8654999999999998 L 9.636948486328125 0.8654999999999998 L 9.573948486328126 1.0739999999999998 L 9.275448486328125 1.0739999999999998 L 9.615948486328126 0.008999999999999897 Z M 9.873948486328125 0.6704999999999999 L 9.779448486328125 0.2954999999999999 L 9.680448486328125 0.6704999999999999 L 9.873948486328125 0.6704999999999999 Z M 10.385436767578126 1.0739999999999998 L 10.385436767578126 0.008999999999999897 L 10.794936767578125 0.008999999999999897 Q 10.971936767578127 0.008999999999999897 11.091186767578126 0.08024999999999982 Q 11.210436767578125 0.15149999999999986 11.271186767578126 0.2722499999999999 Q 11.331936767578126 0.3929999999999998 11.331936767578126 0.5399999999999998 Q 11.331936767578126 0.7019999999999998 11.265186767578125 0.8219999999999998 Q 11.198436767578126 0.9419999999999998 11.077686767578125 1.0079999999999998 Q 10.956936767578126 1.0739999999999998 10.794936767578125 1.0739999999999998 L 10.385436767578126 1.0739999999999998 Z M 11.034936767578126 0.5399999999999998 Q 11.034936767578126 0.4574999999999998 11.006436767578126 0.3952499999999999 Q 10.977936767578125 0.33299999999999985 10.923936767578127 0.2984999999999999 Q 10.869936767578126 0.2639999999999998 10.794936767578125 0.2639999999999998 L 10.677936767578126 0.2639999999999998 L 10.677936767578126 0.8189999999999998 L 10.794936767578125 0.8189999999999998 Q 10.871436767578126 0.8189999999999998 10.924686767578127 0.7829999999999999 Q 10.977936767578125 0.7469999999999999 11.006436767578126 0.6832499999999999 Q 11.034936767578126 0.6194999999999998 11.034936767578126 0.5399999999999998 Z M 11.954350341796877 1.0829999999999997 Q 11.832850341796876 1.0829999999999997 11.733850341796877 1.0372499999999998 Q 11.634850341796877 0.9914999999999998 11.563600341796876 0.9142499999999998 Q 11.492350341796877 0.8369999999999999 11.454100341796876 0.7402499999999999 Q 11.415850341796876 0.6434999999999998 11.415850341796876 0.5399999999999998 Q 11.415850341796876 0.4334999999999999 11.456350341796876 0.3374999999999998 Q 11.496850341796877 0.24149999999999983 11.569600341796876 0.16574999999999984 Q 11.642350341796876 0.08999999999999986 11.742100341796876 0.046499999999999764 Q 11.841850341796876 0.0029999999999998916 11.960350341796877 0.0029999999999998916 Q 12.081850341796876 0.0029999999999998916 12.180850341796877 0.04874999999999985 Q 12.279850341796877 0.0944999999999998 12.350350341796876 0.17249999999999988 Q 12.420850341796877 0.25049999999999983 12.459100341796876 0.34724999999999984 Q 12.497350341796876 0.44399999999999984 12.497350341796876 0.5459999999999998 Q 12.497350341796876 0.6509999999999998 12.457600341796876 0.7469999999999999 Q 12.417850341796877 0.8429999999999999 12.345100341796876 0.9187499999999998 Q 12.272350341796876 0.9944999999999998 12.173350341796876 1.0387499999999998 Q 12.074350341796876 1.0829999999999997 11.954350341796877 1.0829999999999997 Z M 11.712850341796877 0.5429999999999998 Q 11.712850341796877 0.5969999999999998 11.727850341796877 0.6472499999999999 Q 11.742850341796876 0.6974999999999998 11.772850341796877 0.7372499999999998 Q 11.802850341796876 0.7769999999999999 11.848600341796876 0.8002499999999999 Q 11.894350341796876 0.8234999999999999 11.957350341796877 0.8234999999999999 Q 12.020350341796876 0.8234999999999999 12.066850341796876 0.7994999999999999 Q 12.113350341796876 0.7754999999999999 12.142600341796877 0.7342499999999998 Q 12.171850341796876 0.6929999999999998 12.186100341796877 0.6427499999999998 Q 12.200350341796877 0.5924999999999998 12.200350341796877 0.5399999999999998 Q 12.200350341796877 0.4859999999999999 12.185350341796877 0.4364999999999998 Q 12.170350341796876 0.3869999999999998 12.140350341796877 0.34724999999999984 Q 12.110350341796877 0.3074999999999998 12.063850341796876 0.2849999999999998 Q 12.017350341796877 0.26249999999999984 11.955850341796877 0.26249999999999984 Q 11.892850341796876 0.26249999999999984 11.847100341796876 0.28649999999999987 Q 11.801350341796876 0.3104999999999998 11.771350341796877 0.35024999999999984 Q 11.741350341796876 0.3899999999999998 11.727100341796877 0.4402499999999998 Q 11.712850341796877 0.4904999999999998 11.712850341796877 0.5429999999999998 Z M 0.0915 2.721 L 0.0915 1.6560000000000001 L 0.501 1.6560000000000001 Q 0.678 1.6560000000000001 0.79725 1.7272500000000002 Q 0.9165 1.7985000000000002 0.9772500000000001 1.9192500000000001 Q 1.038 2.04 1.038 2.1870000000000003 Q 1.038 2.349 0.9712500000000001 2.4690000000000003 Q 0.9045 2.589 0.7837500000000001 2.6550000000000002 Q 0.663 2.721 0.501 2.721 L 0.0915 2.721 Z M 0.741 2.1870000000000003 Q 0.741 2.1045 0.7125 2.04225 Q 0.684 1.98 0.63 1.9455 Q 0.5760000000000001 1.911 0.501 1.911 L 0.384 1.911 L 0.384 2.466 L 0.501 2.466 Q 0.5775 2.466 0.63075 2.43 Q 0.684 2.394 0.7125 2.33025 Q 0.741 2.2665 0.741 2.1870000000000003 Z M 1.9394135742187502 2.466 L 1.9394135742187502 2.721 L 1.18041357421875 2.721 L 1.18041357421875 1.6560000000000001 L 1.92591357421875 1.6560000000000001 L 1.92591357421875 1.911 L 1.47291357421875 1.911 L 1.47291357421875 2.061 L 1.85991357421875 2.061 L 1.85991357421875 2.298 L 1.47291357421875 2.298 L 1.47291357421875 2.466 L 1.9394135742187502 2.466 Z M 2.2963908691406254 1.6560000000000001 L 2.5048908691406253 2.3835 L 2.710390869140625 1.6560000000000001 L 3.017890869140625 1.6560000000000001 L 2.650390869140625 2.721 L 2.359390869140625 2.721 L 1.9873908691406252 1.6560000000000001 L 2.2963908691406254 1.6560000000000001 Z M 3.872886474609375 2.466 L 3.872886474609375 2.721 L 3.1138864746093753 2.721 L 3.1138864746093753 1.6560000000000001 L 3.8593864746093756 1.6560000000000001 L 3.8593864746093756 1.911 L 3.4063864746093753 1.911 L 3.4063864746093753 2.061 L 3.7933864746093753 2.061 L 3.7933864746093753 2.298 L 3.4063864746093753 2.298 L 3.4063864746093753 2.466 L 3.872886474609375 2.466 Z M 4.02436376953125 2.721 L 4.02436376953125 1.6560000000000001 L 4.316863769531251 1.6560000000000001 L 4.316863769531251 2.466 L 4.7998637695312505 2.466 L 4.7998637695312505 2.721 L 4.02436376953125 2.721 Z M 5.3832553710937505 2.73 Q 5.26175537109375 2.73 5.16275537109375 2.68425 Q 5.06375537109375 2.6385 4.99250537109375 2.5612500000000002 Q 4.92125537109375 2.484 4.88300537109375 2.38725 Q 4.8447553710937505 2.2905 4.8447553710937505 2.1870000000000003 Q 4.8447553710937505 2.0805000000000002 4.88525537109375 1.9845000000000002 Q 4.92575537109375 1.8885 4.99850537109375 1.81275 Q 5.07125537109375 1.737 5.1710053710937505 1.6935 Q 5.27075537109375 1.6500000000000001 5.38925537109375 1.6500000000000001 Q 5.51075537109375 1.6500000000000001 5.60975537109375 1.69575 Q 5.70875537109375 1.7415 5.77925537109375 1.8195000000000001 Q 5.84975537109375 1.8975 5.88800537109375 1.99425 Q 5.926255371093751 2.091 5.926255371093751 2.193 Q 5.926255371093751 2.298 5.88650537109375 2.394 Q 5.84675537109375 2.49 5.77400537109375 2.56575 Q 5.70125537109375 2.6415 5.60225537109375 2.68575 Q 5.503255371093751 2.73 5.3832553710937505 2.73 Z M 5.14175537109375 2.19 Q 5.14175537109375 2.244 5.15675537109375 2.29425 Q 5.1717553710937505 2.3445 5.20175537109375 2.38425 Q 5.23175537109375 2.424 5.27750537109375 2.44725 Q 5.32325537109375 2.4705 5.38625537109375 2.4705 Q 5.44925537109375 2.4705 5.49575537109375 2.4465 Q 5.54225537109375 2.4225000000000003 5.5715053710937505 2.38125 Q 5.60075537109375 2.34 5.61500537109375 2.28975 Q 5.62925537109375 2.2395 5.62925537109375 2.1870000000000003 Q 5.62925537109375 2.133 5.61425537109375 2.0835 Q 5.59925537109375 2.034 5.5692553710937505 1.99425 Q 5.53925537109375 1.9545 5.49275537109375 1.932 Q 5.44625537109375 1.9095 5.384755371093751 1.9095 Q 5.32175537109375 1.9095 5.27600537109375 1.9335 Q 5.23025537109375 1.9575 5.20025537109375 1.9972500000000002 Q 5.17025537109375 2.037 5.15600537109375 2.08725 Q 5.14175537109375 2.1375 5.14175537109375 2.19 Z M 6.065685791015625 2.721 L 6.065685791015625 1.6560000000000001 L 6.524685791015624 1.6560000000000001 Q 6.602685791015625 1.6560000000000001 6.6686857910156245 1.6875 Q 6.734685791015625 1.719 6.782685791015625 1.77225 Q 6.830685791015625 1.8255 6.856935791015625 1.8915000000000002 Q 6.883185791015625 1.9575 6.883185791015625 2.025 Q 6.883185791015625 2.1195 6.838935791015625 2.2035 Q 6.794685791015625 2.2875 6.7159357910156245 2.34075 Q 6.637185791015625 2.394 6.532185791015625 2.394 L 6.358185791015625 2.394 L 6.358185791015625 2.721 L 6.065685791015625 2.721 Z M 6.358185791015625 2.1390000000000002 L 6.512685791015625 2.1390000000000002 Q 6.530685791015625 2.1390000000000002 6.547185791015625 2.1285 Q 6.563685791015625 2.1180000000000003 6.5749357910156245 2.0925000000000002 Q 6.586185791015625 2.067 6.586185791015625 2.025 Q 6.586185791015625 1.98 6.5734357910156245 1.95525 Q 6.560685791015625 1.9305 6.541935791015625 1.92075 Q 6.523185791015625 1.911 6.5051857910156246 1.911 L 6.358185791015625 1.911 L 6.358185791015625 2.1390000000000002 Z M 7.77416455078125 2.466 L 7.77416455078125 2.721 L 7.0151645507812495 2.721 L 7.0151645507812495 1.6560000000000001 L 7.760664550781249 1.6560000000000001 L 7.760664550781249 1.911 L 7.30766455078125 1.911 L 7.30766455078125 2.061 L 7.6946645507812494 2.061 L 7.6946645507812494 2.298 L 7.30766455078125 2.298 L 7.30766455078125 2.466 L 7.77416455078125 2.466 Z M 7.925641845703124 2.721 L 7.925641845703124 1.6560000000000001 L 8.414641845703125 1.6560000000000001 Q 8.492641845703124 1.6560000000000001 8.558641845703125 1.6875 Q 8.624641845703124 1.719 8.672641845703124 1.77225 Q 8.720641845703124 1.8255 8.746891845703125 1.8915000000000002 Q 8.773141845703124 1.9575 8.773141845703124 2.025 Q 8.773141845703124 2.0865 8.755141845703124 2.1435 Q 8.737141845703125 2.2005 8.702641845703123 2.24775 Q 8.668141845703124 2.295 8.620141845703124 2.3295 L 8.845141845703125 2.721 L 8.524141845703124 2.721 L 8.336641845703124 2.394 L 8.218141845703125 2.394 L 8.218141845703125 2.721 L 7.925641845703124 2.721 Z M 8.218141845703125 2.1390000000000002 L 8.402641845703124 2.1390000000000002 Q 8.420641845703123 2.1390000000000002 8.437141845703124 2.1255 Q 8.453641845703125 2.112 8.464891845703125 2.0865 Q 8.476141845703124 2.061 8.476141845703124 2.025 Q 8.476141845703124 1.9875 8.463391845703125 1.9627500000000002 Q 8.450641845703124 1.9380000000000002 8.431891845703124 1.9245 Q 8.413141845703125 1.911 8.395141845703124 1.911 L 8.218141845703125 1.911 L 8.218141845703125 2.1390000000000002 Z"
            fill="#fff"
            fill-rule="nonzero"
          ></path>
        </g>
        <g>
          <path
            d=" M 0.378 3.3017625 Q 0.36675 3.2890125 0.35175 3.2788875 Q 0.33675 3.2687625000000002 0.318 3.2612625 Q 0.29925 3.2537625 0.277875 3.2492625 Q 0.2565 3.2447625 0.2325 3.2447625 Q 0.16275 3.2447625 0.130125 3.2713875000000003 Q 0.0975 3.2980125 0.0975 3.3437625 Q 0.0975 3.3752625000000003 0.112875 3.3932625 Q 0.12825 3.4112625000000003 0.16125 3.4225125000000003 Q 0.19425 3.4337625000000003 0.24525 3.4457625000000003 Q 0.30225 3.4577625000000003 0.3435 3.4742625 Q 0.38475 3.4907625 0.40725 3.5188875 Q 0.42975 3.5470125 0.42975 3.5950125 Q 0.42975 3.6317625000000002 0.41550000000000004 3.6587625 Q 0.40125 3.6857625 0.37575000000000003 3.7037625000000003 Q 0.35025 3.7217625 0.315 3.7303875 Q 0.27975 3.7390125000000003 0.23775000000000002 3.7390125000000003 Q 0.1965 3.7390125000000003 0.15862500000000002 3.7303875 Q 0.12075 3.7217625 0.08700000000000001 3.7048875000000003 Q 0.05325 3.6880125 0.024 3.6617625 L 0.05025 3.6190125 Q 0.0645 3.6340125000000003 0.084375 3.6471375 Q 0.10425 3.6602625 0.128625 3.6707625 Q 0.153 3.6812625000000003 0.181125 3.6868875 Q 0.20925 3.6925125000000003 0.23925000000000002 3.6925125000000003 Q 0.303 3.6925125000000003 0.338625 3.6692625000000003 Q 0.37425 3.6460125000000003 0.37425 3.6002625 Q 0.37425 3.5672625 0.35625 3.5473875 Q 0.33825 3.5275125000000003 0.30225 3.5147625000000002 Q 0.26625 3.5020125 0.21375 3.4900125 Q 0.15825 3.4772625 0.12 3.4615125 Q 0.08175 3.4457625000000003 0.062625 3.4198875 Q 0.043500000000000004 3.3940125 0.043500000000000004 3.3512625000000003 Q 0.043500000000000004 3.3017625 0.067875 3.2676375 Q 0.09225 3.2335125000000002 0.135 3.2158875 Q 0.17775 3.1982625000000002 0.23325 3.1982625000000002 Q 0.2685 3.1982625000000002 0.298875 3.2053875 Q 0.32925 3.2125125 0.355125 3.2260125 Q 0.381 3.2395125 0.4035 3.2597625 L 0.378 3.3017625 Z M 0.5294959716796875 3.7345125 L 0.5294959716796875 3.2020125000000004 L 0.5819959716796875 3.2020125000000004 L 0.5819959716796875 3.7345125 L 0.5294959716796875 3.7345125 Z M 0.7754853515625 3.2987625 L 0.7754853515625 3.7345125 L 0.7229853515625 3.7345125 L 0.7229853515625 3.2020125000000004 L 0.7664853515625 3.2020125000000004 L 1.1159853515625 3.6460125000000003 L 1.1159853515625 3.2027625 L 1.1684853515625 3.2027625 L 1.1684853515625 3.7345125 L 1.1197353515625 3.7345125 L 0.7754853515625 3.2987625 Z M 1.27421484375 3.4645125 Q 1.27421484375 3.4157625 1.29108984375 3.3688875 Q 1.30796484375 3.3220125 1.3402148437499999 3.2833875 Q 1.37246484375 3.2447625 1.41971484375 3.2218875000000002 Q 1.46696484375 3.1990125000000003 1.52696484375 3.1990125000000003 Q 1.59821484375 3.1990125000000003 1.64883984375 3.2316375 Q 1.69946484375 3.2642625 1.72346484375 3.3152625000000002 L 1.68221484375 3.3407625000000003 Q 1.66496484375 3.3055125000000003 1.6387148437499999 3.2848875 Q 1.61246484375 3.2642625 1.58283984375 3.2552625 Q 1.55321484375 3.2462625000000003 1.52396484375 3.2462625000000003 Q 1.47596484375 3.2462625000000003 1.4392148437499999 3.2653875 Q 1.40246484375 3.2845125 1.37733984375 3.3163875000000003 Q 1.35221484375 3.3482625 1.33946484375 3.3876375000000003 Q 1.32671484375 3.4270125 1.32671484375 3.4675125 Q 1.32671484375 3.5117625 1.34171484375 3.5522625000000003 Q 1.35671484375 3.5927625 1.38371484375 3.6238875 Q 1.41071484375 3.6550125 1.44708984375 3.6733875 Q 1.48346484375 3.6917625000000003 1.52621484375 3.6917625000000003 Q 1.5562148437499999 3.6917625000000003 1.58771484375 3.6812625000000003 Q 1.61921484375 3.6707625 1.64658984375 3.6490125 Q 1.6739648437499999 3.6272625 1.69046484375 3.5927625 L 1.73396484375 3.6152625 Q 1.71746484375 3.6550125 1.68296484375 3.6827625 Q 1.64846484375 3.7105125 1.60608984375 3.7247625 Q 1.56371484375 3.7390125000000003 1.52321484375 3.7390125000000003 Q 1.46846484375 3.7390125000000003 1.42271484375 3.7153875000000003 Q 1.37696484375 3.6917625000000003 1.34358984375 3.6523875 Q 1.3102148437499999 3.6130125 1.29221484375 3.5638875000000003 Q 1.27421484375 3.5147625000000002 1.27421484375 3.4645125 Z M 2.1891954345703124 3.6880125 L 2.1891954345703124 3.7345125 L 1.8314454345703126 3.7345125 L 1.8314454345703126 3.2020125000000004 L 2.1824454345703126 3.2020125000000004 L 2.1824454345703126 3.2485125000000004 L 1.8839454345703126 3.2485125000000004 L 1.8839454345703126 3.4405125 L 2.1441954345703125 3.4405125 L 2.1441954345703125 3.4847625 L 1.8839454345703126 3.4847625 L 1.8839454345703126 3.6880125 L 2.1891954345703124 3.6880125 Z M 2.4606141357421873 3.7345125 Q 2.4606141357421873 3.7090125 2.4651141357421875 3.6831375 Q 2.4696141357421872 3.6572625000000003 2.4823641357421873 3.6317625000000002 Q 2.4951141357421873 3.6062625 2.5198641357421874 3.5826375 Q 2.5446141357421874 3.5590125 2.5851141357421876 3.5380125000000002 Q 2.6068641357421876 3.5267625000000002 2.6301141357421876 3.5158875000000003 Q 2.6533641357421875 3.5050125000000003 2.6739891357421874 3.4918875000000003 Q 2.6946141357421873 3.4787625 2.7069891357421874 3.4618875 Q 2.7193641357421874 3.4450125000000003 2.7193641357421874 3.4217625000000003 Q 2.7193641357421874 3.4030125 2.7084891357421874 3.3850125 Q 2.6976141357421874 3.3670125 2.6754891357421875 3.3557625 Q 2.6533641357421875 3.3445125 2.6203641357421876 3.3445125 Q 2.5963641357421876 3.3445125 2.5768641357421873 3.3512625000000003 Q 2.5573641357421875 3.3580125 2.5423641357421873 3.3681375 Q 2.5273641357421877 3.3782625 2.5168641357421873 3.3883875000000003 Q 2.5063641357421873 3.3985125000000003 2.4996141357421875 3.4052625 L 2.4673641357421876 3.3700125 Q 2.4711141357421873 3.3655125000000004 2.4842391357421874 3.3538875 Q 2.4973641357421874 3.3422625000000004 2.5179891357421873 3.3295125 Q 2.5386141357421876 3.3167625000000003 2.5667391357421874 3.3077625 Q 2.5948641357421875 3.2987625 2.6286141357421875 3.2987625 Q 2.6743641357421875 3.2987625 2.7069891357421874 3.3148875 Q 2.7396141357421873 3.3310125 2.7568641357421875 3.3580125 Q 2.7741141357421872 3.3850125 2.7741141357421872 3.4165125 Q 2.7741141357421872 3.4472625 2.7609891357421876 3.4693875000000003 Q 2.7478641357421876 3.4915125000000002 2.7272391357421872 3.5076375 Q 2.7066141357421873 3.5237625 2.6844891357421874 3.5353875 Q 2.6623641357421874 3.5470125 2.6443641357421876 3.5552625 Q 2.609114135742187 3.5717625 2.5851141357421876 3.5882625 Q 2.5611141357421876 3.6047625 2.5468641357421875 3.6216375000000003 Q 2.5326141357421874 3.6385125 2.5247391357421876 3.6546375 Q 2.5168641357421873 3.6707625 2.5138641357421876 3.6880125 L 2.7823641357421875 3.6880125 L 2.7823641357421875 3.7345125 L 2.4606141357421873 3.7345125 Z M 3.243611206054687 3.5147625000000002 Q 3.243611206054687 3.5807625 3.2192362060546875 3.6321375000000002 Q 3.1948612060546875 3.6835125 3.152111206054687 3.7127625 Q 3.1093612060546874 3.7420125 3.055361206054687 3.7420125 Q 3.0013612060546873 3.7420125 2.9589862060546874 3.7127625 Q 2.916611206054687 3.6835125 2.891861206054687 3.6321375000000002 Q 2.867111206054687 3.5807625 2.867111206054687 3.5147625000000002 Q 2.867111206054687 3.4487625 2.891861206054687 3.3973875000000002 Q 2.916611206054687 3.3460125 2.9589862060546874 3.3163875000000003 Q 3.0013612060546873 3.2867625 3.055361206054687 3.2867625 Q 3.1093612060546874 3.2867625 3.152111206054687 3.3163875000000003 Q 3.1948612060546875 3.3460125 3.2192362060546875 3.3973875000000002 Q 3.243611206054687 3.4487625 3.243611206054687 3.5147625000000002 Z M 3.1918612060546874 3.5147625000000002 Q 3.1918612060546874 3.4615125 3.174611206054687 3.4210125000000002 Q 3.1573612060546874 3.3805125 3.126611206054687 3.3576375 Q 3.0958612060546873 3.3347625 3.055361206054687 3.3347625 Q 3.0148612060546873 3.3347625 2.9841112060546875 3.3576375 Q 2.953361206054687 3.3805125 2.9357362060546874 3.4210125000000002 Q 2.918111206054687 3.4615125 2.918111206054687 3.5147625000000002 Q 2.918111206054687 3.5680125 2.9357362060546874 3.6085125000000002 Q 2.953361206054687 3.6490125 2.9841112060546875 3.6715125 Q 3.0148612060546873 3.6940125 3.055361206054687 3.6940125 Q 3.0958612060546873 3.6940125 3.126611206054687 3.6711375 Q 3.1573612060546874 3.6482625 3.174611206054687 3.6081375 Q 3.1918612060546874 3.5680125 3.1918612060546874 3.5147625000000002 Z M 3.5968608398437496 3.6880125 L 3.5968608398437496 3.7345125 L 3.3426108398437497 3.7345125 L 3.3426108398437497 3.6880125 L 3.4491108398437498 3.6880125 L 3.4491108398437498 3.3670125 Q 3.4431108398437495 3.3760125000000003 3.4288608398437495 3.3865125000000003 Q 3.41461083984375 3.3970125 3.3962358398437495 3.4060125 Q 3.3778608398437497 3.4150125 3.3598608398437495 3.4210125000000002 Q 3.3418608398437497 3.4270125 3.3268608398437496 3.4270125 L 3.3268608398437496 3.3775125 Q 3.34411083984375 3.3775125 3.3643608398437497 3.3677625 Q 3.3846108398437496 3.3580125 3.40336083984375 3.3452625 Q 3.4221108398437496 3.3325125 3.4348608398437497 3.3212625 Q 3.4476108398437497 3.3100125 3.4491108398437498 3.3062625 L 3.5016108398437495 3.3062625 L 3.5016108398437495 3.6880125 L 3.5968608398437496 3.6880125 Z M 4.0400947265625 3.5590125 Q 4.0400947265625 3.5087625 4.0157197265625 3.4678875000000002 Q 3.9913447265624993 3.4270125 3.9497197265624995 3.4030125 Q 3.9080947265624992 3.3790125 3.8570947265624995 3.3790125 Q 3.8233447265624996 3.3790125 3.7937197265624993 3.3910125 Q 3.7640947265624995 3.4030125 3.7423447265624996 3.4247625 Q 3.7205947265624992 3.4465125 3.7093447265624993 3.4757625 Q 3.7093447265624993 3.4022625 3.7277197265624995 3.3505125000000002 Q 3.7460947265624993 3.2987625 3.7790947265624997 3.2710125000000003 Q 3.8120947265624996 3.2432625 3.8563447265624995 3.2432625 Q 3.8983447265624993 3.2432625 3.9324697265624993 3.2661375 Q 3.9665947265624997 3.2890125 3.9823447265624994 3.3272625000000002 L 4.0153447265625 3.2972625 Q 3.9935947265624994 3.2515125 3.9515947265624995 3.2248875000000004 Q 3.9095947265624993 3.1982625000000002 3.8563447265624995 3.1982625000000002 Q 3.7978447265624995 3.1982625000000002 3.7535947265624996 3.2335125000000002 Q 3.7093447265624993 3.2687625000000002 3.6845947265624996 3.3396375000000003 Q 3.6598447265624996 3.4105125000000003 3.6598447265624996 3.5192625 Q 3.6598447265624996 3.5882625 3.6845947265624996 3.6385125 Q 3.7093447265624993 3.6887625 3.7524697265624996 3.7153875000000003 Q 3.7955947265624994 3.7420125 3.8510947265624993 3.7420125 Q 3.9043447265624995 3.7420125 3.9470947265624994 3.7172625 Q 3.9898447265624997 3.6925125000000003 4.0149697265625 3.6508875 Q 4.0400947265625 3.6092625000000003 4.0400947265625 3.5590125 Z M 3.8525947265624993 3.6970125 Q 3.8143447265624992 3.6970125 3.7828447265624994 3.6782625 Q 3.7513447265624995 3.6595125 3.7322197265624997 3.6280125 Q 3.7130947265624994 3.5965125000000002 3.7130947265624994 3.5590125 Q 3.7130947265624994 3.5207625 3.7318447265624997 3.4896375 Q 3.7505947265624995 3.4585125000000003 3.7824697265624994 3.4397625 Q 3.8143447265624992 3.4210125000000002 3.8525947265624993 3.4210125000000002 Q 3.8900947265624994 3.4210125000000002 3.9215947265624993 3.4397625 Q 3.9530947265624996 3.4585125000000003 3.9722197265624994 3.4900125 Q 3.9913447265624993 3.5215125 3.9913447265624993 3.5590125 Q 3.9913447265624993 3.5965125000000002 3.9722197265624994 3.6280125 Q 3.9530947265624996 3.6595125 3.9215947265624993 3.6782625 Q 3.8900947265624994 3.6970125 3.8525947265624993 3.6970125 Z"
            fill="#e7c1c1"
            fill-rule="nonzero"
          ></path>
        </g>
        <g clip-path='url("#SvgjsClipPath1002")'>
          <g class="tummy" clip-path='url("#SvgjsClipPath1000")'>
            <path
              d=" M -1.5218940605540596 3.801788994008647 C -1.4079681747866837 3.814952774090674 -1.2655608175774637 3.8232480026481115 -1.1051478301411033 3.783195933433019 C -1.0211897926064426 3.7945173183311516 -0.9179800604690607 3.8033821763174247 -0.8179566929492348 3.815709313175849 C -0.6154534309977244 3.836785602042813 -0.475110980468038 3.701454110394926 -0.4149794738864452 3.5046026404326565 C -0.3459920097784037 3.278762372818485 -0.5343613415268993 3.1031919022991676 -0.5938787163805272 2.954643227810301 C -0.5769678427119322 2.7401421460139135 -0.45854722473264076 2.2958756938202756 -0.5605553947935698 2.0793631081033075 C -0.8023274854955227 1.7169452844656687 -1.8432095607171872 1.6595996218094808 -2.0709011239750788 2.08619866124935 C -2.1746893860011234 2.3059332134231765 -2.074461307905309 2.741058893375947 -2.0576038369956677 2.955586676551812 C -2.1170500081706916 3.1041264505808543 -2.305463842218315 3.279705821559996 -2.236467477650448 3.5055371887143423 C -2.176335971068855 3.7023797582167868 -2.0359935205391686 3.8377112498646735 -1.8335436613466114 3.8166171600780574 C -1.7343035342914366 3.758933279948498 -1.645281135116023 3.7722127660082583 -1.5218940605540596 3.801780093548823 Z"
              fill="#f2f0f0"
              transform="matrix(1,0,0,1,0,0)"
              fill-rule="nonzero"
            ></path>
          </g>
          <g class="arm" clip-path='url("#SvgjsClipPath1000")'>
            <path
              d=" M -1.469986578851299 2.748108057557804 C -1.4625279935174662 2.9561919078199512 -1.5181202655880153 3.282812082039122 -1.5070658944846496 3.542082476758158 C -1.4980408282215154 3.753788814169315 -1.4708677243740311 3.830946900397235 -1.7148382286529014 3.824066844952065 C -1.8624701557797343 3.8198925292938695 -1.9089394565290678 3.740518228569381 -1.8335258604269604 3.571783311196106 C -1.8186175902191204 3.311471562677478 -1.8530356683646236 2.9787723743974386 -1.8854689439690233 2.7555399415121604 C -1.9496145579319513 2.4350165822735086 -2.16807634435072 2.211081013062011 -2.0476086206115456 1.6276647719553137 C -2.011624061536741 1.5240990214249088 -1.8828611092401295 1.4562241147950643 -1.7665677011591503 1.4562241147950643 C -1.4133084506820295 1.7236651316339788 -1.5103145623209848 2.3391586299520526 -1.469986578851299 2.748108057557804 Z"
              fill="#ffffff"
              transform="matrix(1,0,0,1,0,0)"
              fill-rule="nonzero"
            ></path>
          </g>
          <g class="arm" clip-path='url("#SvgjsClipPath1000")'>
            <path
              d=" M -1.1961550318576202 2.7641288852438413 C -1.2036136171914533 2.9054325854346903 -1.1332109799711452 3.2839958431959237 -1.1442119483155575 3.5432662379149598 C -1.1532370145786917 3.754972575326116 -1.180454620725304 3.8321306615540367 -0.9364930169062591 3.8252506061088667 C -0.7888521893196005 3.821076290450671 -0.7423917890300924 3.7417019897261827 -0.8177430819134208 3.572967072352908 C -0.8327136553400398 3.3126553238342797 -0.7982421744355832 2.9799561355542403 -0.7657999983713579 2.756723702668963 C -0.7017166876272087 2.436200343430311 -0.4666644440935659 2.2390996605929256 -0.602031537580755 1.62598258504828 C -0.6689451945494371 1.5371915978283315 -0.7972898252342462 1.4988128150604467 -0.8480847494588102 1.48866629085929 C -1.220043866029467 1.8091985505577666 -0.9971496506175612 2.401426246891784 -1.1961550318576202 2.7641288852438413 Z"
              fill="#ffffff"
              transform="matrix(1,0,0,1,0,0)"
              fill-rule="nonzero"
            ></path>
          </g>
          <g class="sternum" clip-path='url("#SvgjsClipPath1000")'>
            <path
              d=" M -0.824943553912312 2.138195147550367 C -0.7136878060926091 2.530296004706303 -1.0993625312544788 2.7890946750545833 -1.3257546273778358 2.788462742406967 C -1.5521467235011932 2.7878308097593507 -1.9072394687023828 2.521448947639679 -1.8265568003835342 2.1369490831747857 C -1.6090384627062766 1.7191971008015396 -0.9472358719157299 1.837938135334552 -0.824943553912312 2.138177346630715 Z"
              fill="#f8f8f8"
              transform="matrix(1,0,0,1,0,0)"
              fill-rule="nonzero"
            ></path>
          </g>
          <g class="neck" clip-path='url("#SvgjsClipPath1000")'>
            <path
              d=" M -0.6873157436294266 1.1850805066687093 C -0.6419946021975924 1.2969681871360283 -0.5936028021259345 1.5625757092508743 -0.6107717891294713 1.6932166585706825 C -0.6623944561178132 2.085157307449758 -1.074663755238505 2.389455128426384 -1.3256122200206268 2.3888053948591175 C -1.576560684802749 2.38815566129185 -1.9888833866823936 2.083955745373305 -2.0404259495323056 1.6920150964942298 C -2.05763943883497 1.5613741471744216 -2.009274340142789 1.2957399236800986 -1.9639799000904312 1.1838789445922564 C -1.760586592156363 0.685453194359987 -0.8841850145113475 0.6916212130191113 -0.6873157436294266 1.1850805066687091 Z"
              fill="#ffffff"
              transform="matrix(1,0,0,1,0,0)"
              fill-rule="nonzero"
            ></path>
          </g>
          <g class="left-ear-fur" clip-path='url("#SvgjsClipPath1000")'>
            <path
              d=" M -1.552867660747065 0.361894778320814 C -1.6397005468053867 0.21572252660537544 -1.7766519221415282 -0.022008755335765934 -1.9354806277289363 -0.08457008744974132 C -2.132581310566322 -0.162164296209115 -2.026265317949814 0.47034688129546054 -1.9992791237586667 0.6053668568494521 C -1.8514869883549734 0.9083830116111953 -1.5680429447496724 0.6019223788969541 -1.552867660747065 0.361894778320814 Z"
              fill="#ffffff"
              transform="matrix(1,0,0,1,0,0)"
              fill-rule="nonzero"
            ></path>
          </g>
          <g class="left-ear-inner" clip-path='url("#SvgjsClipPath1000")'>
            <path
              d=" M -1.7094089481592998 0.4430224696309415 C -1.7226528323797572 0.35312782539262144 -1.6913677160928566 0.2608300570013959 -1.7268271480379525 0.1995236897228267 C -1.7937586059262858 0.08370200601260308 -1.890916025382276 -0.02000615187501127 -1.9529166285272401 -0.03818089083883795 C -2.022705134019583 -0.05056143045621451 -1.9966712890297729 0.4105535921872393 -1.945671654229221 0.5381238828672237 C -1.918727074310533 0.5822977204667802 -1.8828108400937007 0.6203243556135335 -1.8402457075952707 0.649744549539775 C -1.7783697108878644 0.5824481727985934 -1.7269517544755106 0.5281553678625782 -1.7094089481592998 0.4430224696309415 Z"
              fill="#e7c1c1"
              transform="matrix(1,0,0,1,0,0)"
              fill-rule="nonzero"
            ></path>
          </g>
          <g class="right-ear-fur" clip-path='url("#SvgjsClipPath1000")'>
            <path
              d=" M -0.7211107895871396 -0.08141042421166175 C -0.8799661965540244 -0.018857992557511943 -1.0169086714303406 0.21887328938362943 -1.1037415574886624 0.36500103879994006 C -1.1018101577065122 0.528600390853857 -0.8157137770731895 0.6793207775401651 -0.6992067579563965 0.7303738150996704 C -0.668695981674321 0.699863038817595 -0.6760032591911191 0.6568382160207595 -0.6565468540124093 0.6074584649084624 C -0.6303171989064364 0.47350654453354013 -0.5240279076694054 -0.159013533430861 -0.7211107895871396 -0.08141042421166175 Z"
              fill="#ffffff"
              transform="matrix(1,0,0,1,0,0)"
              fill-rule="nonzero"
            ></path>
          </g>
          <g class="right-ear-inner" clip-path='url("#SvgjsClipPath1000")'>
            <path
              d=" M -0.9471824691567765 0.4461732324091955 C -0.9339919876952723 0.3562785881708755 -0.9652860044419982 0.26398972023947537 -0.9298176720370772 0.20268335296090623 C -0.8628595127692669 0.08687056971050822 -0.7657020933132765 -0.01684648863693171 -0.7036569878691847 -0.035021227600758396 C -0.6174026316995251 -0.04904835228586655 -0.6678326370712404 0.3628293266024996 -0.6929764360784931 0.48849491887981045 C -0.7219650933880539 0.5337389887030958 -0.746868945010573 0.5814736049095888 -0.7673931806801355 0.6311336880444944 C -0.8491172027985769 0.5692487908772637 -0.8895341908665191 0.5197889356265364 -0.9471824691567761 0.4461732324091954 Z"
              fill="#e7c1c1"
              transform="matrix(1,0,0,1,0,0)"
              fill-rule="nonzero"
            ></path>
          </g>
          <g class="face" clip-path='url("#SvgjsClipPath1000")'>
            <path
              d=" M -1.6630108510885708 1.3764759947579008 C -1.8027480703501177 1.368260870338894 -1.9739395146352512 1.2354838106609476 -2.0166973236373194 1.0633845194736053 C -2.0431939925380598 0.956783712142679 -2.0310448648761485 0.7101430699161357 -1.9795201029458875 0.6000443818737576 C -1.911983413789415 0.5200203475820017 -1.7233025659470242 0.3916757168971922 -1.552867660747065 0.35605607667523614 C -1.4963408403948302 0.34474359223692874 -1.4166461231166205 0.3270672790233343 -1.3283090593477764 0.3286515608722869 C -1.2399719955789321 0.33023584272123946 -1.160250576921246 0.34789435501518257 -1.103741557488662 0.3592246403731412 C -0.9299778803139374 0.4234236570950226 -0.763930901807987 0.5122324452346223 -0.6743299727439109 0.6109296442404373 C -0.6255732538194039 0.7132849322345639 -0.6134152256976668 0.9599522758405838 -0.6399118945984077 1.0665530831715104 C -0.6826786040603017 1.2386434738990273 -0.8538878492650859 1.3714205335769736 -0.9935983671471562 1.3796356579959805 C -1.1896843975644262 1.4571586630767497 -1.4447626757056158 1.4589298545820393 -1.6630108510885706 1.3764848952177264 Z"
              fill="#ffffff"
              transform="matrix(1,0,0,1,0,0)"
              fill-rule="nonzero"
            ></path>
          </g>
          <g class="eye-color" clip-path='url("#SvgjsClipPath1000")'>
            <path
              d=" M -1.4890869656369856 0.8836753351353956 C -1.411385951359705 0.7487087623403574 -1.5846779041636743 0.6522633796704133 -1.6745903493216456 0.7097247483043336 C -1.8410022466804445 0.8159784377020628 -1.5645539644980464 1.014752406986657 -1.4890869656369856 0.8836753351353956 Z"
              fill="#e9e857"
              transform="matrix(1,0,0,1,0,0)"
              fill-rule="nonzero"
            ></path>
          </g>
          <g class="iris" clip-path='url("#SvgjsClipPath1000")'>
            <path
              d=" M -1.5876506577454168 0.7329282470696109 C -1.6795479054444915 0.7248199281685109 -1.68407823949571 0.8812989123619668 -1.5876506577454168 0.8836753351353956 C -1.4801687048917582 0.8863098712437661 -1.5059355360868014 0.7401643209078043 -1.5876506577454168 0.7329282470696109 Z"
              fill="#000"
              transform="matrix(1,0,0,1,0,0)"
              fill-rule="nonzero"
            ></path>
          </g>
          <g class="eye-colour" clip-path='url("#SvgjsClipPath1000")'>
            <path
              d=" M -1.15344172515468 0.8868260979136496 C -1.231151639891786 0.7518595251186114 -1.0577973838690378 0.6554141424486672 -0.9678938391708922 0.7128755110825875 C -0.8015620459505233 0.8191381009401422 -1.0779302239944912 1.0179120702247364 -1.15344172515468 0.8868260979136496 Z"
              fill="#e9e857"
              transform="matrix(1,0,0,1,0,0)"
              fill-rule="nonzero"
            ></path>
          </g>
          <g class="iris" clip-path='url("#SvgjsClipPath1000")'>
            <path
              d=" M -1.0548780330462488 0.7360879103076902 C -0.9629896858069997 0.7279706909467648 -0.9583970485370024 0.8844585756000463 -1.0548780330462488 0.8868260979136494 C -1.1623065831409538 0.8894606340220201 -1.1366020551646896 0.743279481846756 -1.0548780330462488 0.7360879103076902 Z"
              fill="#000"
              transform="matrix(1,0,0,1,0,0)"
              fill-rule="nonzero"
            ></path>
          </g>
          <g class="mouth" clip-path='url("#SvgjsClipPath1000")'>
            <path
              d=" M -1.1725866142394945 1.2266723554336274 C -1.1627961084313607 1.092070701491438 -1.4661949829656034 1.0940555040325413 -1.445074191799511 1.2149326489236922 C -1.4083063922600556 1.3276569726146152 -1.2321929936913787 1.331964795170194 -1.1725866142394945 1.2266723554336274 Z"
              fill="#efefef"
              transform="matrix(1,0,0,1,0,0)"
              fill-rule="nonzero"
            ></path>
          </g>
          <g class="snoot" clip-path='url("#SvgjsClipPath1000")'>
            <path
              d=" M -1.3195688077990604 1.140177686848677 C -1.330249359589752 1.1896197411797533 -1.4158984844912719 1.2570229234388421 -1.4837466897416398 1.213375068454216 C -1.53078561991981 1.1844040717219655 -1.5559205184672376 1.158744046044829 -1.5636372171360122 1.104032919497012 C -1.5747449909983313 1.0256287688935108 -1.4514914233337515 0.8744010559971449 -1.3192572917051653 0.8743387527783658 C -1.1870231600765788 0.8742764495595868 -1.0637695924119994 1.0255753661345575 -1.074823963515365 1.103970616278233 C -1.082594064943093 1.1586728423662243 -1.1077556648699969 1.1843328680433607 -1.1572244205805498 1.2148881466245638 C -1.227600356421381 1.260173686217096 -1.3087992514101132 1.1927705039580072 -1.3195688077990604 1.140177686848677 Z"
              fill="#fff"
              transform="matrix(1,0,0,1,0,0)"
              fill-rule="nonzero"
            ></path>
          </g>
          <g class="nose" clip-path='url("#SvgjsClipPath1000")'>
            <path
              d=" M -1.3219452305724892 1.0659211505238948 C -1.3258508536968856 1.066170358836237 -1.3294970224708802 1.0679626136543527 -1.332079910482776 1.070902798391876 C -1.334662798494672 1.0738429831293992 -1.3359703272896355 1.0776896820403947 -1.3357142419226555 1.0815948602767342 L -1.3357142419226555 1.0815948602767342 L -1.3334179232876568 1.1284290798789165 C -1.3332655400525844 1.1365791251611848 -1.3265350919245273 1.1430625112502015 -1.3183850466422586 1.1429101280151288 C -1.3102350013599904 1.1427577447800565 -1.3037516152709738 1.136027296651999 -1.3039039985060463 1.127877251369731 C -1.3039039985060463 1.1275657352758355 -1.3039039985060463 1.1272809205614172 -1.3039039985060463 1.1269872053871732 L -1.306200317141045 1.080152985784991 C -1.3064997947986718 1.0720059234294712 -1.3133344912246738 1.065636957627722 -1.3214824066615591 1.0659122500640692 C -1.3216215327732965 1.065899007154288 -1.321761602161624 1.065899007154288 -1.3219007282733612 1.0659122500640692 Z"
              fill="#e7c1c1"
              transform="matrix(1,0,0,1,0,0)"
              fill-rule="nonzero"
            ></path>
          </g>
          <g clip-path='url("#SvgjsClipPath1000")'>
            <path
              d=" M -1.3991300181798865 1.0030750036955007 C -1.3830646881947213 0.9747003377715637 -1.267599022877521 0.9779579060677246 -1.247893404823695 1.0118330561638678 C -1.2610838862851992 1.0413291800258273 -1.2865837036854748 1.0811142354461531 -1.3195421064195836 1.0794765508382473 C -1.3525005091536926 1.0778388662303413 -1.378009227013794 1.0446935538398954 -1.3991300181798865 1.003030501396373 Z"
              fill="#e7c1c1"
              transform="matrix(1,0,0,1,0,0)"
              fill-rule="nonzero"
            ></path>
          </g>
        </g>
      </g>
      <defs>
        <clipPath id="SvgjsClipPath1002">
          <path
            d=" M -2.251446951536893 -0.09113862680101659 h 1.8514469515368928 v 3.9167897536020333 h -1.8514469515368928 Z"
          ></path>
        </clipPath>
        <clipPath id="SvgjsClipPath1000">
          <path
            d=" M -2.251446951536893 -0.09113862680101659 L -0.40000000000000013 -0.09113862680101659 L -0.40000000000000013 3.8256511268010165 L -2.2514469515368924 3.8256511268010165 Z"
          ></path>
        </clipPath>
      </defs>
    </svg>